# xmcd
#
# Track frame offsets:
#	150
#	19611
#	36862
#	69263
#	89290
#	113816
#	129717
#	151245
#	170373
#	190782
#	213578
#	230079
#
# Disc length: 3406 seconds
#
# Revision: 0
# Processed by: cddbd v1.5.1PL0 Copyright (c) Steve Scherf et al.
# Submitted via: EasyCDDAExtractor 7.1.3.1
#
DISCID=9b0d4c0c
DTITLE=Radiohead - Toronto Live 06-06-1995
DYEAR=1995
DGENRE=Alternative
TTITLE0=The Bends
TTITLE1=Just
TTITLE2=Bones and High and Dry
TTITLE3=Street Spirit (Fade Out)
TTITLE4=Black Star and Prove Yourself
TTITLE5=Vegetable
TTITLE6=Fake Plastic Trees
TTITLE7=Planet Telex
TTITLE8=Creep
TTITLE9=My Iron Lung
TTITLE10=Bullet Proof.. I Wish I Was
TTITLE11=Stop Whispering
EXTD=
EXTT0=
EXTT1=
EXTT2=
EXTT3=
EXTT4=
EXTT5=
EXTT6=
EXTT7=
EXTT8=
EXTT9=
EXTT10=
EXTT11=
PLAYORDER=
